<?xml version="1.0" encoding="UTF-8"?> <svg xmlns="http://www.w3.org/2000/svg" width="164" height="54" viewBox="0 0 164 54"><g><g><g><path fill="#fff" d="M58.148 36.923h-8.92L47.1 42.998h-4.302l8.563-22.926h4.91l8.564 22.926h-4.523zm-7.764-3.497h6.6l-3.302-9.343z"></path></g><g><g><path fill="#fff" d="M77.19 41.192a4.936 4.936 0 0 1-1.652.835 8.99 8.99 0 0 1-2.684.324 10.803 10.803 0 0 1-3.506-.486 5.184 5.184 0 0 1-2.265-1.468 5.778 5.778 0 0 1-1.226-2.465 14.233 14.233 0 0 1-.371-3.451v-.904c-.011-1.13.105-2.258.346-3.362a5.47 5.47 0 0 1 1.242-2.465 5.578 5.578 0 0 1 2.443-1.515 12.324 12.324 0 0 1 3.926-.518c1.346-.037 2.69.13 3.979.534a5.81 5.81 0 0 1 2.443 1.495 5.121 5.121 0 0 1 1.208 2.335c.23.999.338 2.02.328 3.045v8.307a11.436 11.436 0 0 1-.434 3.336 5.08 5.08 0 0 1-1.405 2.236 5.935 5.935 0 0 1-2.497 1.285 14.48 14.48 0 0 1-3.684.402h-2.622c-.473 0-1-.009-1.567-.016-.565-.007-1.24-.023-2.017-.045l.674-3.354a71.29 71.29 0 0 0 1.643.046c.463.008.926.015 1.345.015h2.36a8.64 8.64 0 0 0 1.854-.178 2.696 2.696 0 0 0 1.231-.611c.343-.326.584-.746.693-1.206a7.53 7.53 0 0 0 .209-1.93zm-3.716-2.195a8.02 8.02 0 0 0 1.878-.178c.425-.09.817-.296 1.132-.595.296-.313.492-.705.566-1.129.11-.593.16-1.196.148-1.8V33.72c0-.95-.031-1.716-.094-2.335-.027-.49-.2-.98-.488-1.385a1.96 1.96 0 0 0-1.133-.723 10.462 10.462 0 0 0-4.002 0c-.45.098-.85.35-1.133.723a2.81 2.81 0 0 0-.488 1.385 23.78 23.78 0 0 0-.094 2.335v.641a20.72 20.72 0 0 0 .109 2.318c.043.505.21.99.489 1.414.276.36.671.612 1.116.712a8.08 8.08 0 0 0 1.993.192z"></path></g><g><path fill="#fff" d="M101.502 20.063l-.745 3.702H89.51v5.637h11.055l-.714 3.701H89.502v6.183h12.023l-.714 3.701H85.197V20.063z"></path></g><g><path fill="#fff" d="M118.955 39.962a2.954 2.954 0 0 1-.776 2.366 4.195 4.195 0 0 1-2.683.656h-5.267c-2.309 0-3.94-.432-4.895-1.29a4.698 4.698 0 0 1-1.435-3.702v-.711a4.582 4.582 0 0 1 1.582-3.879 8.183 8.183 0 0 1 4.949-1.203c.94-.017 1.88.073 2.8.27a5.907 5.907 0 0 1 1.663.626v-.576c0-.49-.046-.979-.174-1.452-.1-.36-.29-.682-.597-.92a2.48 2.48 0 0 0-1.148-.46 11.71 11.71 0 0 0-1.823-.149h-1.354c-.5 0-1.006.025-1.505.032-.5.007-1.009.023-1.502.031-.492.008-.946.015-1.357.015l.657-3.384c.622-.023 1.39-.04 2.283-.046.907-.007 1.887-.015 2.97-.015a9.696 9.696 0 0 1 5.787 1.38 5.097 5.097 0 0 1 1.847 4.351v8.067zm-4.062-2.612c0-.33-.042-.661-.125-.981a1.21 1.21 0 0 0-.463-.657c-.303-.174-.644-.32-1-.37a10.1 10.1 0 0 0-1.715-.115h-.489a4.783 4.783 0 0 0-2.49.448 1.864 1.864 0 0 0-.644 1.646v.611c-.023.574.175 1.137.597 1.53a3.581 3.581 0 0 0 2.211.503h4.118z"></path></g><g><path fill="#fff" d="M133.76 41.192a4.931 4.931 0 0 1-1.652.835 8.99 8.99 0 0 1-2.684.324 10.803 10.803 0 0 1-3.505-.486 5.184 5.184 0 0 1-2.266-1.468 5.783 5.783 0 0 1-1.225-2.465 14.232 14.232 0 0 1-.371-3.451v-.904c-.012-1.13.104-2.258.346-3.362a5.47 5.47 0 0 1 1.242-2.465 5.703 5.703 0 0 1 2.443-1.515 12.324 12.324 0 0 1 3.926-.518c1.346-.037 2.69.13 3.979.534a5.935 5.935 0 0 1 2.443 1.495 5.14 5.14 0 0 1 1.21 2.335c.227.999.336 2.02.326 3.045v8.307a11.422 11.422 0 0 1-.435 3.336 5.084 5.084 0 0 1-1.403 2.236 5.93 5.93 0 0 1-2.49 1.274 14.5 14.5 0 0 1-3.684.402h-2.623c-.473 0-1.002-.008-1.567-.015-.566-.007-1.241-.023-2.017-.045l.675-3.354a81.695 81.695 0 0 0 2.974.06h2.355c.625.01 1.25-.05 1.862-.178a2.8 2.8 0 0 0 1.241-.61c.343-.327.564-.746.693-1.206a7.547 7.547 0 0 0 .209-1.931zm-3.715-2.195a8.121 8.121 0 0 0 1.877-.178 2.37 2.37 0 0 0 1.134-.595c.294-.313.491-.705.565-1.129.111-.594.162-1.2.15-1.804v-1.599c0-.923-.032-1.692-.094-2.307A2.611 2.611 0 0 0 133.19 30a1.957 1.957 0 0 0-1.155-.728 10.365 10.365 0 0 0-3.98 0 1.83 1.83 0 0 0-1.116.728c-.3.404-.463.891-.505 1.385a23.665 23.665 0 0 0-.093 2.307v.665c-.007.774.028 1.548.108 2.318.027.504.21.99.49 1.414.276.36.67.611 1.115.71a8.012 8.012 0 0 0 1.993.194z"></path></g><g><path fill="#fff" d="M141.397 42.991h4.204V19.066h-4.204z"></path></g><g><path fill="#fff" d="M152.881 36.039c0 .636.052 1.272.148 1.901.056.432.243.83.536 1.16.308.295.706.495 1.117.592.618.105 1.247.159 1.877.145h2.583c.97 0 2.164-.022 3.592-.062l-.645 3.22c-.604.024-1.14.04-1.616.047-.477.007-.931.015-1.373.015h-2.731a11.506 11.506 0 0 1-3.785-.518 5.47 5.47 0 0 1-2.344-1.462 5.42 5.42 0 0 1-1.194-2.387 13.09 13.09 0 0 1-.334-3.207v-1.79c-.03-1.152.09-2.308.344-3.418a5.743 5.743 0 0 1 1.241-2.497 5.434 5.434 0 0 1 2.389-1.53 11.943 11.943 0 0 1 3.802-.518c1.196-.032 2.39.116 3.537.46.845.258 1.62.705 2.265 1.306a4.595 4.595 0 0 1 1.21 1.979c.246.81.367 1.65.357 2.496v.557c.01.597-.035 1.195-.132 1.785a2.28 2.28 0 0 1-.434 1.081c-.218.256-.476.438-.79.518a5.097 5.097 0 0 1-1.196.131zm3.507-7.149a6.982 6.982 0 0 0-1.775.187 1.921 1.921 0 0 0-1.07.634c-.284.366-.464.8-.52 1.26a14.094 14.094 0 0 0-.142 2.01h6.95v-.743c0-.53-.034-1.06-.153-1.576a2.156 2.156 0 0 0-.55-1.028 2.334 2.334 0 0 0-1.063-.557 6.515 6.515 0 0 0-1.676-.184z"></path></g><g><path fill="#fff" d="M16.125 54s3.06-3.767 1.279-6.666c-1.32-2.155-5.542-1.698-7.868-2.349C4.857 43.67.408 38.874 1.303 34.678c0 0 6.767 9.036 15.737 5.695-1.06.203-6.682-2.065-10.554-5.665C1.853 30.372-1.854 25.261 1 16.615c0 0 .3 14.698 16.359 18.222 0 0-20.415-9.86-12.817-29.236 0 0 1.106 10.758 4.724 13.784 0 0-6.408-9.525.224-19.385 0 0-1.993 13.206 5.335 19.326 5.68 4.717 9.45 5.178 13.177 10.674 2.887 4.244 3.233 9.14-1.848 14.928a17.727 17.727 0 0 0-9.527-17.236S31.696 43.526 16.12 54"></path></g><g><path fill="#fff" d="M32.704 20.77c-.563.423-.924.895-.793 1.074.13.18.693 0 1.256-.407.564-.407.924-.874.793-1.052-.14-.179-.693 0-1.256.384m7.894-.028c-.629.286-1.22.623-1.805 1.008-.499.303-.964.66-1.386 1.063-.074.07-.138.144-.209.218-3.18 3.054-3.987 7.496-5.327 11.369v-.016a11.364 11.364 0 0 0-2.054-5.361c-.96-1.44-2.12-2.714-3.443-3.853l-.115-.11c.579-.788 1.199-1.545 1.859-2.268.777-.813 2.705-2.457 3.024-2.72a3.6 3.6 0 0 1 3.349-.616c.936-.66 2.676-1.455 3.662-1.035a5.026 5.026 0 0 1 2.445 2.321"></path></g></g></g></g></svg> 